<svg xmlns="http://www.w3.org/2000/svg" version="1.1" xmlns:xlink="http://www.w3.org/1999/xlink" xmlns:svgjs="http://svgjs.dev/svgjs" width="1000" height="1000" viewBox="0 0 1000 1000"><rect width="1000" height="1000" fill="#ffffff"></rect><g transform="matrix(0.7,0,0,0.7,150,106.25)"><svg viewBox="0 0 320 360" data-background-color="#ffffff" preserveAspectRatio="xMidYMid meet" height="1125" width="1000" xmlns="http://www.w3.org/2000/svg" xmlns:xlink="http://www.w3.org/1999/xlink"><g id="tight-bounds" transform="matrix(1,0,0,1,0,0)"><svg viewBox="0 0 320 360" height="360" width="320"><g><svg></svg></g><g><svg viewBox="0 0 320 360" height="360" width="320"><g><path xmlns="http://www.w3.org/2000/svg" d="M320 187.111c0-45.764-20.238-86.866-52.203-114.908-28.043-31.964-69.145-52.203-114.908-52.203-84.302 0-152.889 68.587-152.889 152.889 0 45.753 20.231 86.848 52.185 114.891 28.043 31.975 69.152 52.22 114.926 52.22 0.299 0 0.59-0.021 0.889-0.021 0.299 0 0.59 0.021 0.889 0.021 83.456 0 151.111-67.655 151.111-151.111 0-0.299-0.021-0.59-0.021-0.889 0-0.299 0.021-0.59 0.021-0.889zM59.833 263.097c-15.093-21.255-24.071-47.143-24.256-75.097 0.48-72.928 59.492-131.943 132.423-132.423 27.954 0.185 53.845 9.163 75.097 24.256 24.366 23.627 39.57 56.64 39.57 93.056 0 71.559-58.219 129.778-129.778 129.778-36.416 0-69.429-15.204-93.056-39.57zM3.556 172.889c0-82.343 66.99-149.333 149.333-149.333 35.051 0 67.292 12.167 92.8 32.462-22.98-13.824-49.863-21.796-78.578-21.796-84.302 0-152.889 68.587-152.889 152.889 0 28.708 7.968 55.584 21.785 78.56-20.288-25.5-32.452-57.739-32.451-92.782zM167.111 318.667c-35.84 0-68.363-14.418-92.107-37.743 21.952 15.89 48.864 25.298 77.885 25.298 73.522 0 133.333-59.812 133.333-133.333 0-29.02-9.408-55.932-25.298-77.885 23.324 23.744 37.742 56.267 37.743 92.107 0 72.54-59.015 131.556-131.556 131.556z" fill="#1ebbd7" fill-rule="nonzero" stroke="none" stroke-width="1" stroke-linecap="butt" stroke-linejoin="miter" stroke-miterlimit="10" stroke-dasharray="" stroke-dashoffset="0" font-family="none" font-weight="none" font-size="none" text-anchor="none" style="mix-blend-mode: normal" data-fill-palette-color="tertiary"></path></g><g transform="matrix(1,0,0,1,64,153.85089212734968)"><svg viewBox="0 0 192 52.29821574530066" height="52.29821574530066" width="192"><g><svg viewBox="0 0 192 52.29821574530066" height="52.29821574530066" width="192"><g><svg viewBox="0 0 245.98946664749622 67.00421978021978" height="52.29821574530066" width="192"><g transform="matrix(1,0,0,1,53.989466647496215,1.1797655677655712)"><svg viewBox="0 0 192 64.64468864468864" height="64.64468864468864" width="192"><g id="textblocktransform"><svg viewBox="0 0 192 64.64468864468864" height="64.64468864468864" width="192" id="textblock"><g><svg viewBox="0 0 192 64.64468864468864" height="64.64468864468864" width="192"><g transform="matrix(1,0,0,1,0,0)"><svg width="192" viewBox="-3.75 -35.70000076293945 163.77999877929688 55.150001525878906" height="64.64468864468864" data-palette-color="#1ebbd7"><path d="M-0.45 1.9L-2.05 3.4Q-3.2 3.4-3.6 2.65L-3.6 2.65Q-3.75 2.4-3.75 2.25-3.75 2.1-3.65 2L-3.65 2Q0.9-1.35 7.15-8.5L7.15-8.5Q4.05-10.2 2.35-12.58 0.65-14.95 0.65-16.98 0.65-19 1.9-20.15 3.15-21.3 5.55-21.3L5.55-21.3Q10.1-21.3 13.3-16.05L13.3-16.05Q14.7-17.8 17.78-21.75 20.85-25.7 22.25-27.43 23.65-29.15 25.7-31.5L25.7-31.5Q29.5-35.7 31.45-35.7L31.45-35.7Q32.95-35.65 32.95-34.1L32.95-34.1Q32.95-32.45 31.83-29.58 30.7-26.7 30.03-25.03 29.35-23.35 28.03-20.58 26.7-17.8 25.95-16.18 25.2-14.55 23.65-11.38 22.1-8.2 21.5-6.95L21.5-6.95Q25.35-7.2 27.6-8.3L27.6-8.3Q28-8.5 28.1-8.75 28.2-9 28.38-9 28.55-9 28.73-8.8 28.9-8.6 28.9-8.4L28.9-8.4Q28.9-6.7 21.1-6.05L21.1-6.05Q19.15-2 18.4-0.2L18.4-0.2Q18.2 0.2 17.8 0.2L17.8 0.2Q16.75 0.2 16.75-1.8L16.75-1.8Q16.55-3.35 16.05-6.05L16.05-6.05Q12.1-6.35 8.65-7.8L8.65-7.8 8.65-7.75Q6.5-5.1 3.83-2.33 1.15 0.45-0.45 1.9L-0.45 1.9ZM19.65-6.9L19.65-6.9Q31.1-30.7 31.1-33.45L31.1-33.45Q31.1-34.3 30.5-34.3L30.5-34.3Q29.6-34.3 27.98-32.5 26.35-30.7 25.35-29.5 24.35-28.3 22.7-26.18 21.05-24.05 19.98-22.65 18.9-21.25 16.95-18.63 15-16 14.05-14.75L14.05-14.75Q15.6-11.85 16.85-7.1L16.85-7.1Q18.05-6.9 19.65-6.9ZM12.75-15.3L12.75-15.3Q9.8-20.4 5.75-20.4L5.75-20.4Q3.95-20.4 3.05-19.65 2.15-18.9 2.15-17.43 2.15-15.95 3.83-13.78 5.5-11.6 8.35-9.95L8.35-9.95Q9.85-11.7 12.75-15.3ZM13.45-13.95L13.45-13.95Q11.85-11.8 9.75-9.15L9.75-9.15Q12.7-7.75 15.75-7.25L15.75-7.25Q14.7-11.45 13.45-13.95ZM19.2-5.95L19.2-5.95 17.1-5.95 17.7-2.8Q18.3-4 19.2-5.95ZM31.7-8L31.7-8Q35-9.85 37.32-9.85 39.65-9.85 39.65-7.9L39.65-7.9Q39.65-5.25 36.32-2.38 33 0.5 29.7 0.5L29.7 0.5Q29.4 0.5 28.95 0.2 28.5-0.1 28.5-0.8 28.5-1.5 29.62-2.45 30.75-3.4 30.97-3.4 31.2-3.4 31.42-3.33 31.65-3.25 31.87-3.05 32.1-2.85 32.1-2.7 32.1-2.55 31.85-2.3L31.85-2.3Q31.35-1.95 30.77-1.38 30.2-0.8 30.2-0.58 30.2-0.35 30.7-0.35 31.2-0.35 32.8-1.07 34.4-1.8 36-3.48 37.6-5.15 37.6-7.15L37.6-7.15Q37.6-8.4 36.15-8.4L36.15-8.4Q33.95-8.4 30.95-6.7L30.95-6.7Q26.65 0.5 25.55 2.5L25.55 2.5Q21.2 10.5 17.8 14.98 14.4 19.45 11.7 19.45L11.7 19.45Q10.8 19.45 10.8 18.35L10.8 18.35Q10.8 13.95 16.62 6.23 22.45-1.5 29-6.25L29-6.25Q34.05-14.6 35.1-16.7L35.1-16.7Q34.55-16.05 33.25-15.15L33.25-15.15 30.4-13.2Q30.1-13.1 29.85-13.1 29.6-13.1 29.55-13.35L29.55-13.35Q34.25-16.3 36.5-18.75L36.5-18.75Q37.05-19.35 37.1-19.5L37.1-19.5Q37.25-19.65 37.8-19.6 38.35-19.55 38.35-19.1L38.35-19.1Q38.35-18.9 37.62-17.73 36.9-16.55 31.7-8ZM24.1 2.1L24.1 2.1 28.15-4.8Q22.4-0.45 17.3 6.83 12.2 14.1 12.2 17.55L12.2 17.55Q12.2 18 12.5 18L12.5 18Q15.65 18 24.1 2.1ZM39.8-3.8L39.8-3.8Q40.75-4.35 42.3-5.55L42.3-5.55Q46.09-8.55 46.34-8.55L46.34-8.55Q47.09-8.55 47.09-7.9 47.09-7.25 46.32-5.9 45.55-4.55 44.57-3.1 43.59-1.65 43.45-1.35L43.45-1.35Q43.5-1.3 43.67-1.3 43.84-1.3 45.65-2.63 47.45-3.95 49.4-5.43 51.34-6.9 51.7-7.13 52.05-7.35 52.34-7.35L52.34-7.35Q52.95-7.3 52.95-6.65L52.95-6.65Q52.95-6.4 51.25-4.13 49.55-1.85 49.55-1.2L49.55-1.2Q49.55-0.75 50.62-0.75 51.7-0.75 53.8-1.73 55.9-2.7 57.5-3.7L57.5-3.7 59.09-4.7Q59.15-4.6 59.15-4.3 59.15-4 58.7-3.8L58.7-3.8Q51.95 0.8 49.3 0.8L49.3 0.8Q47.75 0.8 47.75-0.4L47.75-0.4Q47.75-1.55 48.42-2.6 49.09-3.65 49.59-4.38 50.09-5.1 50.09-5.15L50.09-5.15Q47.8-3.5 44.65-1.2 41.5 1.1 41.09 1.1L41.09 1.1Q40.8 1.1 40.8 0.4 40.8-0.3 42.77-3.25 44.75-6.2 44.75-6.4 44.75-6.6 44.65-6.6L44.65-6.6 44.15-6.35 41.65-4.35Q41.4-4.15 40.7-3.7 40-3.25 39.82-3.25 39.65-3.25 39.65-3.48 39.65-3.7 39.8-3.8ZM67.09-5.95L67.09-5.95Q66.79-5.95 66.79-6.3L66.79-6.3 66.94-6.65Q67.84-7.5 67.84-8.1L67.84-8.1Q67.84-8.85 67.04-8.85L67.04-8.85Q65.29-8.85 62.32-6.43 59.34-4 59.34-2.1L59.34-2.1Q59.34-1.3 60.39-1.3 61.44-1.3 62.82-2.18 64.19-3.05 65.17-3.93 66.14-4.8 66.24-4.8L66.24-4.8Q66.74-4.75 66.74-4.3L66.74-4.3Q66.74-4.1 65.97-3 65.19-1.9 65.19-1.25L65.19-1.25Q65.19-0.75 66.02-0.75 66.84-0.75 68.94-1.73 71.04-2.7 72.64-3.7L72.64-3.7 74.24-4.7Q74.29-4.6 74.29-4.3 74.29-4 73.84-3.8L73.84-3.8Q67.09 0.8 64.44 0.8L64.44 0.8Q63.14 0.8 63.14-0.5L63.14-0.5Q63.14-1.05 63.34-1.65L63.34-1.65Q62.99-1.25 61.27-0.43 59.54 0.4 58.19 0.4 56.84 0.4 56.84-0.85L56.84-0.85Q56.84-3.8 60.94-6.88 65.04-9.95 67.84-9.95L67.84-9.95Q69.49-9.95 69.49-8.55L69.49-8.55Q69.49-7.75 68.49-6.85 67.49-5.95 67.09-5.95ZM82.24-5.95L82.24-5.95Q81.94-5.95 81.94-6.3L81.94-6.3 82.09-6.65Q82.99-7.5 82.99-8.1L82.99-8.1Q82.99-8.85 82.19-8.85L82.19-8.85Q80.44-8.85 77.47-6.43 74.49-4 74.49-2.1L74.49-2.1Q74.49-1.3 75.54-1.3 76.59-1.3 77.97-2.18 79.34-3.05 80.32-3.93 81.29-4.8 81.39-4.8L81.39-4.8Q81.89-4.75 81.89-4.3L81.89-4.3Q81.89-4.1 81.12-3 80.34-1.9 80.34-1.25L80.34-1.25Q80.34-0.75 81.17-0.75 81.99-0.75 84.09-1.73 86.19-2.7 87.79-3.7L87.79-3.7 89.39-4.7Q89.44-4.6 89.44-4.3 89.44-4 88.99-3.8L88.99-3.8Q82.24 0.8 79.59 0.8L79.59 0.8Q78.29 0.8 78.29-0.5L78.29-0.5Q78.29-1.05 78.49-1.65L78.49-1.65Q78.14-1.25 76.42-0.43 74.69 0.4 73.34 0.4 71.99 0.4 71.99-0.85L71.99-0.85Q71.99-3.8 76.09-6.88 80.19-9.95 82.99-9.95L82.99-9.95Q84.64-9.95 84.64-8.55L84.64-8.55Q84.64-7.75 83.64-6.85 82.64-5.95 82.24-5.95ZM89.54-4.15L89.54-4.15 88.29-3.35Q88.09-3.25 87.91-3.25 87.74-3.25 87.74-3.45 87.74-3.65 87.89-3.8L87.89-3.8Q88.29-4 90.41-5.63 92.54-7.25 93.16-7.25 93.79-7.25 93.79-6.53 93.79-5.8 92.26-3.55 90.74-1.3 90.74-1.13 90.74-0.95 90.84-0.95L90.84-0.95Q91.29-0.95 96.04-4.9 100.79-8.85 101.19-8.85L101.19-8.85Q101.94-8.85 101.94-8.15L101.94-8.15Q101.94-7.7 100.21-5.08 98.49-2.45 97.94-1.5L97.94-1.5Q97.99-1.45 98.16-1.45 98.34-1.45 100.19-2.78 102.04-4.1 104.04-5.6 106.04-7.1 106.39-7.33 106.74-7.55 107.04-7.55L107.04-7.55Q107.64-7.5 107.64-6.85L107.64-6.85Q107.64-6.6 105.91-4.23 104.19-1.85 104.19-1.2L104.19-1.2Q104.19-0.75 105.26-0.75 106.34-0.75 108.44-1.73 110.54-2.7 112.14-3.7L112.14-3.7 113.74-4.7Q113.79-4.6 113.79-4.3 113.79-4 113.34-3.8L113.34-3.8Q106.59 0.8 103.94 0.8L103.94 0.8Q102.39 0.8 102.39-0.4L102.39-0.4Q102.39-1.55 103.06-2.6 103.74-3.65 104.24-4.38 104.74-5.1 104.74-5.15L104.74-5.15Q98.04-0.25 97.01 0.23 95.99 0.7 95.54 0.7 95.09 0.7 95.09-0.3L95.09-0.3 98.69-5.9Q98.09-5.65 94.79-3.15 91.49-0.65 89.64 1L89.64 1Q88.94 1.85 88.29 1.85L88.29 1.85Q87.64 1.7 87.64 1L87.64 1Q87.64 0.8 89.46-1.95 91.29-4.7 91.29-4.93 91.29-5.15 91.16-5.15 91.04-5.15 90.74-4.98 90.44-4.8 90.04-4.5 89.64-4.2 89.54-4.15ZM118.59-0.5L118.59-0.5Q118.59-1.05 119.41-2.35 120.24-3.65 120.51-4 120.79-4.35 121.34-5.1L121.34-5.1Q115.39 0.3 113.14 0.3L113.14 0.3Q111.89 0.3 111.89-0.75L111.89-0.75Q111.89-2.25 116.94-9.2L116.94-9.2Q117.19-9.6 117.59-9.6L117.59-9.6Q118.74-9.25 118.74-9.1 118.74-8.95 118.44-8.5L118.44-8.5Q114.14-2.7 114.14-1.98 114.14-1.25 114.64-1.25L114.64-1.25Q116.04-1.25 119.61-4.48 123.19-7.7 124.79-9.8L124.79-9.8Q124.99-10.15 125.44-10.15L125.44-10.15Q126.44-9.95 126.44-9.75L126.44-9.75Q125.89-8.95 124.94-7.65 123.99-6.35 123.39-5.53 122.79-4.7 122.14-3.75L122.14-3.75Q120.89-2.05 120.64-1.25L120.64-1.25Q120.64-0.75 121.46-0.75 122.29-0.75 124.39-1.73 126.49-2.7 128.09-3.7L128.09-3.7 129.69-4.7Q129.74-4.6 129.74-4.3 129.74-4 129.29-3.8L129.29-3.8Q122.54 0.8 119.89 0.8L119.89 0.8Q118.59 0.8 118.59-0.5ZM131.28-5.45L131.28-5.45Q128.88-3.25 128.23-3.25L128.23-3.25Q128.03-3.25 128.03-3.45 128.03-3.65 128.18-3.8L128.18-3.8Q129.38-4.45 130.98-5.9L130.98-5.9Q130.73-6.5 130.73-7.2L130.73-7.2Q130.73-8.9 132.48-10.45 134.23-12 135.43-12L135.43-12Q136.08-12 136.08-11.38 136.08-10.75 134.08-8.35L134.08-8.35Q133.88-8.1 133.63-7.85 133.38-7.6 133.11-7.28 132.83-6.95 132.68-6.8L132.68-6.8Q132.93-6.55 133.58-5.93 134.23-5.3 134.63-4.9L134.63-4.9Q135.73-3.8 135.73-2.15 135.73-0.5 133.68 0.73 131.63 1.95 129.41 1.95 127.18 1.95 127.18 0.63 127.18-0.7 129.23-1.8 131.28-2.9 133.53-3.3L133.53-3.3Q133.23-3.7 132.41-4.35 131.58-5 131.28-5.45ZM133.88-2.7Q132.18-2.5 130.68-1.78 129.18-1.05 129.18-0.08 129.18 0.9 130.56 0.9 131.93 0.9 133.01 0.25 134.08-0.4 134.08-1.2 134.08-2 133.88-2.7L133.88-2.7ZM132.33-7.2L132.33-7.2 133.63-8.6Q134.93-10.15 134.93-10.48 134.93-10.8 134.63-10.8L134.63-10.8Q133.78-10.8 132.88-9.98 131.98-9.15 131.98-8.38 131.98-7.6 132.33-7.2ZM147.03-15.25L147.03-15.25Q147.78-15.25 147.78-14.5 147.78-13.75 147.08-12.98 146.38-12.2 145.53-12.2L145.53-12.2Q144.83-12.2 144.83-13.18 144.83-14.15 145.63-14.7 146.43-15.25 147.03-15.25ZM142.33-8.65L142.33-8.65Q142.58-9.05 143.03-9.05 143.48-9.05 143.93-8.6L143.93-8.6Q143.93-8.4 143.28-7.7 142.63-7 141.08-4.58 139.53-2.15 139.53-1.35L139.53-1.35Q139.53-0.85 140.28-0.75L140.28-0.75Q141.28-0.75 143.38-1.73 145.48-2.7 147.08-3.7L147.08-3.7 148.68-4.7Q148.73-4.6 148.73-4.3 148.73-4 148.28-3.8L148.28-3.8Q141.53 0.8 138.88 0.8L138.88 0.8Q137.58 0.8 137.58-0.5 137.58-1.8 139.01-4.13 140.43-6.45 142.33-8.65ZM153.38-1.2L153.88-1.4Q156.28-2.4 159.03-4.1L159.03-4.1 159.98-4.7Q160.03-4.6 160.03-4.3 160.03-4 159.58-3.8L159.58-3.8Q156.93-2 154.28-0.65 151.63 0.7 149.38 0.7L149.38 0.7Q146.53 0.7 146.53-1.35L146.53-1.35Q146.53-3.8 149.95-6.88 153.38-9.95 156.73-9.95L156.73-9.95Q158.13-9.95 158.13-8.75L158.13-8.75Q158.13-8.05 156.88-7L156.88-7Q155.13-5.55 154.68-5.55 154.23-5.55 154.23-5.95L154.23-5.95Q154.23-6.1 154.43-6.25L154.43-6.25Q154.93-6.55 155.55-7.18 156.18-7.8 156.18-8.25L156.18-8.25Q156.18-8.95 155.53-8.95L155.53-8.95Q154.13-8.95 151.43-6.43 148.73-3.9 148.73-2.35L148.73-2.35Q148.73-0.6 150.63-0.6L150.63-0.6Q151.88-0.6 153.38-1.2L153.38-1.2Z" opacity="1" transform="matrix(1,0,0,1,0,0)" fill="#1ebbd7" class="undefined-text-0" data-fill-palette-color="primary" id="text-0"></path></svg></g></svg></g></svg></g></svg></g><g><svg viewBox="0 0 38.7284071310127 67.00421978021978" height="67.00421978021978" width="38.7284071310127"><g><svg xmlns="http://www.w3.org/2000/svg" xmlns:xlink="http://www.w3.org/1999/xlink" version="1.0" x="0" y="0" viewBox="24.047866821289062 4.909158706665039 52.25592041015625 90.40824127197266" enable-background="new 0 0 100 100" xml:space="preserve" height="67.00421978021978" width="38.7284071310127" class="icon-icon-0" data-fill-palette-color="accent" id="icon-0"><path d="M42.439 21.186c4.493-0.016 8.125-3.67 8.112-8.162-0.014-4.495-3.669-8.128-8.166-8.115-4.491 0.013-8.121 3.669-8.112 8.162C34.288 17.565 37.944 21.197 42.439 21.186z" fill="#1ebbd7" data-fill-palette-color="accent"></path><path d="M53.228 55.127c-1.707 0.716-3.319 1.39-5.775 5.8-3.599 6.458-8.028 7.815-11.113 7.814-0.61 0-1.222-0.055-1.833-0.162l-1.417 26.738h6.352l6.209-28.141L54.713 75.785l-1.672 15.594 6.656 1.057 3.305-18.489-9.626-18.881C53.326 55.086 53.275 55.109 53.228 55.127z" fill="#1ebbd7" data-fill-palette-color="accent"></path><path d="M37.141 54.509l3.976-3.212-8.006-8.947c-0.013-0.039-0.013-0.095-0.02-0.141-0.216-1.335 0.865-4.667 2.27-7.266v6.102c1.041-0.707 1.411-1.381 1.909-2.297 0.598-1.101 1.416-2.607 3.294-4.62 1.854-1.989 3.734-3.228 5.411-3.614 0.368-0.083 0.728-0.142 1.072-0.142 0.097 0 0.19 0.01 0.284 0.017 1.124 0.08 2.039 0.637 2.534 1.567 0.418 0.778 0.846 2.477-0.929 5.12-0.362 0.539-0.557 0.939-0.661 1.223 1.703-1.503 4.911-4.334 8.11-7.191l-4.596-6.671-21.214 1.451-4.3 18.887c0.021 0.062 0.056 0.126 0.078 0.187L37.141 54.509z" fill="#1ebbd7" data-fill-palette-color="accent"></path><path d="M60.739 40.124c-0.275-0.289-0.594-0.804-0.917-1.422-0.01-0.02-0.02-0.037-0.031-0.058-0.07-0.133-0.139-0.276-0.207-0.416l-5.305 5.225c0.061 0.092 0.123 0.182 0.186 0.272 0.406-0.168 0.849-0.299 1.345-0.3 2.398 0 3.198 1.515 3.429 2.166 0.204 0.564 0.246 1.181 0.183 1.818l5.877-0.898 3.165-13.605L63.035 32.697 60.739 40.124z" fill="#1ebbd7" data-fill-palette-color="accent"></path><path d="M72.815 19.088l-7.695 3.489-0.715 2.953c-4.119 3.922-16.099 15.232-16.098 15.231s-3.628-0.478-0.792-4.696c1.584-2.359 1.139-3.882-0.384-3.882-1.203 0-3.078 0.949-5.159 3.18-3.71 3.981-2.775 5.546-5.851 7.403l7.303 9.247-6.04 4.966-11.454-9.193c-3.834 4.422-1.448 12.584 3.885 16.681 1.97 1.512 4.264 2.465 6.606 2.465 3.332 0 6.767-1.921 9.531-6.885 4.029-7.234 6.395-5.675 9.328-8.076 1.298-1.062 4.44-6.735 0.612-6.735-0.005 0-0.01 0-0.016 0-0.814 0.004-1.938 1.075-3.202 1.076-0.728 0-1.503-0.354-2.291-1.474l9.893-9.756c0.018-0.177 0.035-0.338 0.056-0.518 0.316-2.728 2.61-4.784 5.347-4.81l1.2-1.181h3.7l5.725-7.387L72.815 19.088z" fill="#1ebbd7" data-fill-palette-color="accent"></path></svg></g></svg></g></svg></g></svg></g></svg></g></svg></g><defs></defs></svg><rect width="320" height="360" fill="none" stroke="none" visibility="hidden"></rect></g></svg></g></svg>